# xmcd
#
# Track frame offsets: 
#        150
#        18266
#        32474
#        51892
#        67472
#        87852
#        100883
#        118706
#        134467
#        151566
#
# Disc length: 2221 seconds
#
# Revision: 0
# Processed by: cddbd v1.5.2PL0 Copyright (c) Steve Scherf et al.
# Submitted via: ExactAudioCopy v1.3
#
DISCID=7c08ab0a
DTITLE=Dr. Wu' And Friends - Ridin' With Dr. Wu'  Vol. 5
DYEAR=2017
DGENRE=Texas Blues, Blues Rock
TTITLE0=I Still Got Your Tattoo
TTITLE1=Take Me Off Your List
TTITLE2=Lost In Louisiana
TTITLE3=Buddy's Bolero
TTITLE4=Mistletoe Heights
TTITLE5=Buddy's Boogie
TTITLE6=Her Folks Got Lots Of Money
TTITLE7=Love Of A Woman
TTITLE8=I'm Somebody's Son
TTITLE9=Baby I Love You
EXTD=
EXTT0=
EXTT1=
EXTT2=
EXTT3=
EXTT4=
EXTT5=
EXTT6=
EXTT7=
EXTT8=
EXTT9=
PLAYORDER=
